<svg height="32" viewBox="0 0 200 32" width="200"><path d="M199.92,16.18l0-6.39c-1.25.05-5,.56-6.66,2.55V10.23h-7V31.52h7V21.63c0-.06,0-.11,0-.17,1-4.74,5.53-5.24,6.68-5.28"></path><path d="M137.22,16.43a9,9,0,0,0-2.54-1.6,5.54,5.54,0,0,0-2.46-.56,4.29,4.29,0,0,0-1.83.39,1.35,1.35,0,0,0-.84,1.33,1.32,1.32,0,0,0,.92,1.29,20.73,20.73,0,0,0,3,.86,16.49,16.49,0,0,1,2.44.73,8.61,8.61,0,0,1,2.22,1.25,6.12,6.12,0,0,1,1.6,1.9,5.53,5.53,0,0,1,.6,2.66,6.41,6.41,0,0,1-3,5.68,9.06,9.06,0,0,1-3,1.25,14.13,14.13,0,0,1-3.28.39,16.2,16.2,0,0,1-5.15-.84,10.68,10.68,0,0,1-4.21-2.48l3.46-4.33a11,11,0,0,0,2.84,1.88,6.47,6.47,0,0,0,2.93.69,3.94,3.94,0,0,0,1.71-.41,1.46,1.46,0,0,0,.84-1.44,1.54,1.54,0,0,0-1-1.46,18,18,0,0,0-3.23-1,17.57,17.57,0,0,1-2.25-.69,7.48,7.48,0,0,1-2-1.16A5.88,5.88,0,0,1,123.59,19a5.58,5.58,0,0,1-.56-2.58,6.33,6.33,0,0,1,.82-3.3A6.89,6.89,0,0,1,126,10.87a9.12,9.12,0,0,1,2.86-1.27A12.58,12.58,0,0,1,132,9.19a15.13,15.13,0,0,1,4.72.75,10.29,10.29,0,0,1,3.91,2.26Z"></path><path d="M178.19,18.11a4.16,4.16,0,0,0-1-2.67A4,4,0,0,0,174,14.25a5.36,5.36,0,0,0-1.87.32,4.87,4.87,0,0,0-1.49.87,4.45,4.45,0,0,0-1,1.3,3.8,3.8,0,0,0-.41,1.37ZM184.64,21v.85a7,7,0,0,1,0,.81H169.2a3.57,3.57,0,0,0,.53,1.61,4.59,4.59,0,0,0,1.15,1.26,5.66,5.66,0,0,0,1.58.83,5.54,5.54,0,0,0,1.81.3,5.94,5.94,0,0,0,2.82-.62,5.5,5.5,0,0,0,1.87-1.6l4.87,3.07a10,10,0,0,1-4,3.34A13.08,13.08,0,0,1,174.19,32a13.58,13.58,0,0,1-4.53-.75,10.93,10.93,0,0,1-3.73-2.17,10.09,10.09,0,0,1-2.51-3.51,11.58,11.58,0,0,1-.92-4.76,12.09,12.09,0,0,1,.89-4.71,10.76,10.76,0,0,1,2.43-3.57,11,11,0,0,1,3.63-2.28A12.39,12.39,0,0,1,174,9.44a11.56,11.56,0,0,1,4.31.79,9.36,9.36,0,0,1,3.37,2.28,10.58,10.58,0,0,1,2.2,3.61,14.07,14.07,0,0,1,.79,4.86"></path><path d="M100.31,16V9.57h-6V4.8C94.16,2.05,92.86,0,87.55,0V24.77a11.14,11.14,0,0,0,.38,2.94A5.93,5.93,0,0,0,89.13,30a5.38,5.38,0,0,0,2.21,1.46A11.5,11.5,0,0,0,95,32a15.33,15.33,0,0,0,5.31-.88V25.42a14.72,14.72,0,0,1-3.48.46,2.37,2.37,0,0,1-2-.71A3.53,3.53,0,0,1,94.32,23V16Z"></path><path d="M156.46,20.16l7.9-10H156L149,19v-14C148.87,2.12,147.62,0,142.23,0V31.52H149V21.34l8,10.18h8.45Z"></path><path d="M120.5,31.5V17.4c0-6.07-4.82-8.25-9.09-8.25a13.8,13.8,0,0,0-9.3,3l3.53,4.38a9.07,9.07,0,0,1,5.08-2.21c2.57,0,3.1,1.47,3.1,3.35v.36h-2.31c-5.94,0-9.51,2.57-9.51,7.15,0,5,4.4,6.3,9.76,6.3Zm-6.68-4.43H111.6c-1.73,0-2.79-.72-2.79-2.21s1.06-2.35,3.18-2.35h1.83Z"></path><path d="M62.89,3.87a3.9,3.9,0,1,0,7.8,0,3.9,3.9,0,0,0-7.8,0"></path><path d="M63.55,9.62h-.29v21.9h7.05V14.23c-.2-2.66-1.56-4.61-6.76-4.61"></path><path d="M86,16.18l0-6.39c-1.24.05-5,.56-6.66,2.55V10.23h-7V31.52h7V21.63a1,1,0,0,1,0-.17c1-4.74,5.52-5.24,6.68-5.28"></path><path d="M197.89,28.31h-.39v.74h.39a.37.37,0,0,0,.39-.37.37.37,0,0,0-.39-.37m.39,2.05-.48-1h-.3v1h-.44V27.93H198a.74.74,0,0,1,.76.75.69.69,0,0,1-.47.66l.53,1Zm-.46-3a1.83,1.83,0,1,0,1.74,1.83,1.78,1.78,0,0,0-1.74-1.83m0,4.08A2.25,2.25,0,1,1,200,29.15a2.22,2.22,0,0,1-2.18,2.25"></path><path d="M43.58,19.17l3.13-9,3.13,9ZM50,0H43.71L34,25.66H30.18a13.5,13.5,0,0,1-7.43-1.86A6,6,0,0,1,20,18.41v-3h-3.1A12.15,12.15,0,0,1,9.11,12.3a11.11,11.11,0,0,1-3-6.43H27.84c3.95,0,5.41,1.93,6.32,3.66a11.62,11.62,0,0,1,1,2.74L37.91,5s-2.3-5-10.07-5H0V3C0,8.66,1.68,13.2,5,16.46a17.62,17.62,0,0,0,9.45,4.62C15.7,27.5,21.6,31.5,30.18,31.5H39.1l2-5.78H52.27l2,5.77h7.63Z"></path></svg>